{"title":"Hate Story 3 2015 Movies PDVDRip XviD AAC Ver2 New +Sample ☻rDX☻","uid":12910469,"size":740308422,"categoryP":"video","categoryS":"movies","magnet":"?xt=urn:btih:e36798ea0d847201698e205bd2583b460a47840f&amp;dn=Hate+Story+3+2015+Movies+PDVDRip+XviD+AAC+Ver2+New+%2BSample+%E2%98%BBrDX%E2%98%BB&amp;tr=udp%3A%2F%2Ftracker.leechers-paradise.org%3A6969&amp;tr=udp%3A%2F%2Fzer0day.ch%3A1337&amp;tr=udp%3A%2F%2Fopen.demonii.com%3A1337&amp;tr=udp%3A%2F%2Ftracker.coppersurfer.tk%3A6969&amp;tr=udp%3A%2F%2Fexodus.desync.com%3A6969","seeders":1,"leechers":0,"uploader":"basicssom","files":2,"time":1449291456,"description":"----------------------------------------------------------------\r\nHate Story 3 2015 Hindi Movies PDVDRip XviD AAC Ver2 New Source with Sample ~ ☻rDX☻\r\n\r\nSCREEN SHOTS &amp; POSTER:\r\n  \nhttp://doctorhosts.com/2015/12/HateStory32/11.html  \nhttp://doctorhosts.com/2015/12/HateStory32/1.html  \nhttp://doctorhosts.com/2015/12/HateStory32/2.html  \nhttp://doctorhosts.com/2015/12/HateStory32/3.html  \nhttp://doctorhosts.com/2015/12/HateStory32/4.html  \nhttp://doctorhosts.com/2015/12/HateStory32/5.html  \nhttp://doctorhosts.com/2015/12/HateStory32/6.html  \nhttp://doctorhosts.com/2015/12/HateStory32/7.html  \nhttp://doctorhosts.com/2015/12/HateStory32/8.html  \nhttp://doctorhosts.com/2015/12/HateStory32/9.html  \nhttp://doctorhosts.com/2015/12/HateStory32/10.html\r\n\r\nFormat                                   : Matroska\r\nFormat version                           : Version 4 / Version 2\r\nFile size                                : 690 MiB\r\nDuration                                 : 2h 6mn\r\nOverall bit rate                         : 764 Kbps\r\nMovie name                               : Hate Story 3 2015 Hindi Movies PDVDRip XviD AAC New Source ~ rDX ~\r\n\r\nVideo\r\nID                                       : 1\r\nFormat                                   : MPEG-4 Visual\r\nFormat profile                           : Advanced   \r\nFormat settings, BVOP                    : Yes\r\nFormat settings, QPel                    : No\r\nFormat settings, GMC                     : No warppoints\r\nFormat settings, Matrix                  : Default (H.263)\r\nCodec ID                                 : V_MS/VFW/FOURCC / XVID\r\nCodec ID/Hint                            : XviD\r\nDuration                                 : 2h 6mn\r\nBit rate                                 : 685 Kbps\r\nWidth                                    : 640 pixels\r\nHeight                                   : 272 pixels\r\nDisplay aspect ratio                     : 2.35:1\r\nFrame rate mode                          : Constant\r\nFrame rate                               : 25.000 fps\r\nColor space                              : YUV\r\nChroma subsampling                       : 4:2:0\r\nBit depth                                : 8 bits\r\nScan type                                : Progressive\r\nCompression mode                         : Lossy\r\nBits/(Pixel*Frame)                       : 0.157\r\nStream size                              : 619 MiB (90%)\r\nTitle                                    : ~ rDX ~\r\nWriting library                          : XviD 67\r\nDefault                                  : Yes\r\nForced                                   : No\r\n\r\nAudio\r\nID                                       : 2\r\nFormat                                   : MPEG Audio\r\nFormat version                           : Version 1\r\nFormat profile                           : Layer 3\r\nCodec ID                                 : A_MPEG/L3\r\nCodec ID/Hint                            : MP3\r\nDuration                                 : 2h 6mn\r\nBit rate mode                            : Constant\r\nBit rate                                 : 64.0 Kbps\r\nChannel(s)                               : 2 channels\r\nSampling rate                            : 48.0 KHz\r\nCompression mode                         : Lossy\r\nStream size                              : 57.9 MiB (8%)\r\nTitle                                    : ~ rDX ~\r\nWriting library                          : LAME3.99r\r\nEncoding settings                        : -m s -V 4 -q 3 -lowpass 11 -b 64\r\nDefault                                  : Yes\r\nForced                                   : No\r\n\r\nIMDB                                      \nhttp://www.imdb.com/title/tt4865436/","torrent":{"xt":"urn:btih:e36798ea0d847201698e205bd2583b460a47840f","amp;dn":"Hate+Story+3+2015+Movies+PDVDRip+XviD+AAC+Ver2+New+%2BSample+%E2%98%BBrDX%E2%98%BB","amp;tr":["udp%3A%2F%2Ftracker.leechers-paradise.org%3A6969","udp%3A%2F%2Fzer0day.ch%3A1337","udp%3A%2F%2Fopen.demonii.com%3A1337","udp%3A%2F%2Ftracker.coppersurfer.tk%3A6969","udp%3A%2F%2Fexodus.desync.com%3A6969"],"infoHash":"e36798ea0d847201698e205bd2583b460a47840f","infoHashBuffer":{"type":"Buffer","data":[227,103,152,234,13,132,114,1,105,142,32,91,210,88,59,70,10,71,132,15]},"announce":[],"urlList":[]}}